<svg xmlns="http://www.w3.org/2000/svg" height="189.639" width="198.952"><path d="M194.439 71.242h-70.4a.747.747 0 01-.711-.516L101.573 3.772a2.151 2.151 0 00-2.1-1.525 2.151 2.151 0 00-2.1 1.525L75.618 70.726a.749.749 0 01-.71.516h-70.4a2.207 2.207 0 00-1.3 3.993l56.955 41.38a.746.746 0 01.271.834l-21.755 66.954a2.208 2.208 0 003.4 2.469l56.954-41.381a.746.746 0 01.878 0l56.954 41.381a2.207 2.207 0 003.4-2.469l-21.754-66.954a.747.747 0 01.271-.834l56.955-41.38a2.207 2.207 0 00-1.3-3.993z" fill="#fdbe2a"/><path d="M39.488 186.871a2.154 2.154 0 002.6 0l56.954-41.381a.746.746 0 01.878 0l56.954 41.381a2.153 2.153 0 002.595 0l-59.988-49.265z" fill="#e8a91b"/><path d="M138.511 117.449a.731.731 0 01-.026-.3l-8.754-2.142 29.205 72.148a2.388 2.388 0 00.528-.287 2.151 2.151 0 00.8-2.468zM60.467 117.152a.731.731 0 01-.026.3l-21.755 66.954a2.153 2.153 0 00.8 2.468 2.388 2.388 0 00.528.287l29.207-72.151z" fill="#fdcb55"/><path d="M3.215 75.235l56.955 41.38a.74.74 0 01.3.537l8.754-2.142L2.385 72.89a2.136 2.136 0 00.83 2.345zM138.485 117.152a.742.742 0 01.3-.537l56.955-41.38a2.134 2.134 0 00.833-2.345l-66.839 42.12z" fill="#e8a91b"/><path d="M194.439 71.242h-70.4a.747.747 0 01-.711-.516L101.573 3.772a2.151 2.151 0 00-2.1-1.525 2.151 2.151 0 00-2.1 1.525L75.618 70.726a.749.749 0 01-.71.516h-70.4a2.144 2.144 0 00-1.314.423l75.922 6.309L99.471 4.966l20.356 73.008 75.921-6.309a2.142 2.142 0 00-1.309-.423z" fill="#fdcb55"/><path d="M102.286 3.541l21.754 66.954h70.4a2.954 2.954 0 011.737 5.344l-56.956 41.38 21.754 66.953a2.954 2.954 0 01-4.546 3.3l-56.954-41.379-56.954 41.379a2.954 2.954 0 01-4.546-3.3l21.754-66.953-56.954-41.38a2.954 2.954 0 011.737-5.344h70.4L96.666 3.541a2.955 2.955 0 015.62 0z" fill="none" stroke="#3e4147" stroke-linecap="round" stroke-linejoin="round" stroke-width="3"/></svg>
